<svg id="Layer_1" class="tpvlogo" data-name="Layer 1" xmlns="http://www.w3.org/2000/svg" viewBox="0 0 974.52 974.52" width="100px" height="100px"><defs><style>.cls-1,.cls-2{fill:none;stroke:#fff;stroke-miterlimit:10;}.cls-1{stroke-width:28.35px;}.cls-2{stroke-width:42.52px;}</style></defs><title>logo-korrigiert</title><line class="cls-1" x1="220.43" y1="676.43" x2="220.43" y2="521.09"/><path class="cls-1" d="M234.17,534.83A38.81,38.81,0,0,1,273,496" transform="translate(-13.74 -12.74)"/><line class="cls-1" x1="258.26" y1="483.26" x2="441.68" y2="483.74"/><circle class="cls-1" cx="335.93" cy="405.59" r="77.67"/><line class="cls-1" x1="414.59" y1="754.09" x2="414.59" y2="637.59"/><path class="cls-1" d="M428.33,651.33a38.81,38.81,0,0,1,38.84-38.83" transform="translate(-13.74 -12.74)"/><line class="cls-1" x1="452.43" y1="599.76" x2="568.93" y2="599.76"/><path class="cls-1" d="M620.5,651.33a38.81,38.81,0,0,0-38.83-38.83" transform="translate(-13.74 -12.74)"/><line class="cls-1" x1="606.76" y1="637.59" x2="606.76" y2="754.09"/><circle class="cls-1" cx="509.55" cy="522.09" r="77.67"/><path class="cls-1" d="M544.83,457.17a38.82,38.82,0,0,1,38.84-38.84" transform="translate(-13.74 -12.74)"/><line class="cls-1" x1="568.93" y1="405.59" x2="724.26" y2="405.59"/><path class="cls-1" d="M775.83,457.17A38.81,38.81,0,0,0,737,418.33" transform="translate(-13.74 -12.74)"/><line class="cls-1" x1="762.09" y1="443.43" x2="762.09" y2="598.76"/><circle class="cls-1" cx="646.59" cy="327.93" r="77.67"/><circle class="cls-2" cx="487.26" cy="487.26" r="466"/></svg>

